# Wavefront Obj file
# 
# verts: 100 uv-s: 200
mtllib flare.mtl

g RetopoGroup1
#pivot 0.000000 0.000000 0.000000

v -0.038971 0.000000 -1.032000
v -0.038971 0.394929 -0.953444
v -0.038971 0.729734 -0.729734
v -0.038971 0.953444 -0.394929
v -0.038971 1.032000 0.000000
v -0.038971 0.953444 0.394929
v -0.038971 0.729734 0.729734
v -0.038971 0.394929 0.953444
v -0.038971 0.000000 1.032000
v -0.038971 -0.394929 0.953444
v -0.038971 -0.729734 0.729734
v -0.038971 -0.953444 0.394929
v -0.038971 -1.032000 0.000000
v -0.038971 -0.953443 -0.394929
v -0.038971 -0.729734 -0.729734
v -0.038971 -0.394929 -0.953444
v 9.990630 -0.000001 -1.032000
v 9.990630 0.394929 -0.953444
v 9.990630 0.729733 -0.729734
v 9.990630 0.953443 -0.394929
v 9.990630 1.031999 0.000000
v 9.990630 0.953443 0.394929
v 9.990630 0.729733 0.729734
v 9.990630 0.394929 0.953444
v 9.990630 -0.000001 1.032000
v 9.990630 -0.394930 0.953444
v 9.990630 -0.729735 0.729734
v 9.990630 -0.953444 0.394929
v 9.990630 -1.032000 0.000000
v 9.990630 -0.953444 -0.394929
v 9.990630 -0.729734 -0.729734
v 9.990630 -0.394930 -0.953444
v 20.020231 -0.000001 -1.032000
v 20.020231 0.394928 -0.953444
v 20.020231 0.729733 -0.729734
v 20.020231 0.953442 -0.394929
v 20.020231 1.031999 0.000000
v 20.020231 0.953442 0.394929
v 20.020231 0.729733 0.729734
v 20.020231 0.394928 0.953444
v 20.020231 -0.000001 1.032000
v 20.020231 -0.394930 0.953444
v 20.020231 -0.729735 0.729734
v 20.020231 -0.953445 0.394929
v 20.020231 -1.032001 0.000000
v 20.020231 -0.953445 -0.394929
v 20.020231 -0.729735 -0.729734
v 20.020231 -0.394930 -0.953444
v -0.038971 0.000000 0.000000
v 20.020231 -0.000001 0.000000
# 50 positions

vt 0.108181 0.530278
vt 0.150101 0.558288
vt 0.136191 0.572198
vt 0.157629 0.540113
vt 0.157629 0.520442
vt 0.150101 0.502268
vt 0.136191 0.488358
vt 0.118017 0.480830
vt 0.098345 0.480830
vt 0.080171 0.488358
vt 0.066261 0.502268
vt 0.058733 0.520442
vt 0.058733 0.540114
vt 0.066261 0.558288
vt 0.080171 0.572198
vt 0.098346 0.579726
vt 0.118017 0.579726
vt 0.219656 0.530278
vt 0.229492 0.480830
vt 0.247666 0.488358
vt 0.209821 0.480830
vt 0.191646 0.488358
vt 0.177736 0.502268
vt 0.170208 0.520442
vt 0.170208 0.540113
vt 0.177736 0.558288
vt 0.191646 0.572198
vt 0.209821 0.579726
vt 0.229492 0.579726
vt 0.247666 0.572198
vt 0.261576 0.558288
vt 0.269104 0.540113
vt 0.269104 0.520442
vt 0.261576 0.502268
vt 0.499982 0.950285
vt 0.499969 0.969961
vt 0.010000 0.970328
vt 0.010003 0.950660
vt 0.499982 0.918674
vt 0.499966 0.938347
vt 0.010025 0.938778
vt 0.010011 0.919109
vt 0.499997 0.899001
vt 0.010000 0.899438
vt 0.499999 0.867890
vt 0.499998 0.887559
vt 0.010007 0.887563
vt 0.010011 0.867886
vt 0.499998 0.848221
vt 0.010000 0.848211
vt 0.499999 0.816673
vt 0.500014 0.836345
vt 0.010000 0.835929
vt 0.010012 0.816257
vt 0.499986 0.797002
vt 0.010027 0.796586
vt 0.499998 0.765253
vt 0.499991 0.784923
vt 0.010018 0.785127
vt 0.010016 0.765450
vt 0.500004 0.745584
vt 0.010000 0.745777
vt 0.499986 0.714180
vt 0.499984 0.733851
vt 0.010005 0.733908
vt 0.010005 0.714235
vt 0.499988 0.694509
vt 0.010000 0.694563
vt 0.499982 0.663018
vt 0.499986 0.682690
vt 0.010000 0.682554
vt 0.010002 0.662885
vt 0.499978 0.643344
vt 0.010012 0.643215
vt 0.499980 0.611799
vt 0.499982 0.631472
vt 0.010000 0.631365
vt 0.010000 0.611697
vt 0.499977 0.592125
vt 0.010011 0.592027
vt 0.499954 0.989635
vt 0.010016 0.989992
vt 0.989973 0.950655
vt 0.989941 0.970328
vt 0.989963 0.919110
vt 0.989933 0.938782
vt 0.989985 0.899438
vt 0.989983 0.867882
vt 0.989983 0.887553
vt 0.989996 0.848211
vt 0.989978 0.816257
vt 0.989994 0.835929
vt 0.989961 0.796586
vt 0.989982 0.765448
vt 0.989975 0.785119
vt 0.990000 0.745777
vt 0.989969 0.714234
vt 0.989967 0.733906
vt 0.989974 0.694563
vt 0.989956 0.662887
vt 0.989962 0.682559
vt 0.989958 0.643215
vt 0.989956 0.611699
vt 0.989942 0.631371
vt 0.989960 0.592027
vt 0.989886 0.990000
# 106 texture coordinates

vn -0.089671 -0.000000 -0.995972
vn -0.089671 0.381142 -0.920157
vn -0.089671 0.704259 -0.704258
vn -0.089671 0.920158 -0.381142
vn -0.089671 0.995972 0.000000
vn -0.089671 0.920158 0.381142
vn -0.089671 0.704259 0.704258
vn -0.089671 0.381142 0.920157
vn -0.089671 -0.000000 0.995972
vn -0.089671 -0.381142 0.920158
vn -0.089671 -0.704259 0.704258
vn -0.089671 -0.920158 0.381142
vn -0.089671 -0.995972 -0.000001
vn -0.089671 -0.920158 -0.381142
vn -0.089671 -0.704259 -0.704258
vn -0.089671 -0.381142 -0.920157
vn -0.000000 0.000000 -1.000000
vn 0.000000 0.382684 -0.923880
vn 0.000000 0.707107 -0.707106
vn 0.000000 0.923879 -0.382684
vn 0.000000 1.000000 0.000000
vn 0.000000 0.923879 0.382684
vn 0.000000 0.707107 0.707106
vn 0.000000 0.382684 0.923880
vn -0.000000 0.000000 1.000000
vn -0.000000 -0.382684 0.923880
vn -0.000000 -0.707107 0.707106
vn -0.000000 -0.923880 0.382683
vn -0.000000 -1.000000 -0.000000
vn -0.000000 -0.923879 -0.382684
vn -0.000000 -0.707107 -0.707106
vn -0.000000 -0.382684 -0.923879
vn 0.089671 -0.000000 -0.995972
vn 0.089671 0.381142 -0.920157
vn 0.089671 0.704259 -0.704258
vn 0.089671 0.920158 -0.381142
vn 0.089671 0.995972 0.000000
vn 0.089671 0.920158 0.381142
vn 0.089671 0.704259 0.704258
vn 0.089671 0.381142 0.920157
vn 0.089671 -0.000000 0.995972
vn 0.089671 -0.381142 0.920157
vn 0.089671 -0.704259 0.704258
vn 0.089671 -0.920158 0.381142
vn 0.089671 -0.995972 0.000000
vn 0.089671 -0.920157 -0.381142
vn 0.089671 -0.704259 -0.704258
vn 0.089671 -0.381142 -0.920157
vn -1.000000 0.000000 0.000000
vn 1.000000 0.000000 0.000000
# 50 normals

usemtl Default1
f 50/1/50 48/2/48 33/3/33
f 50/1/50 47/4/47 48/2/48
f 50/1/50 46/5/46 47/4/47
f 50/1/50 45/6/45 46/5/46
f 50/1/50 44/7/44 45/6/45
f 50/1/50 43/8/43 44/7/44
f 50/1/50 42/9/42 43/8/43
f 50/1/50 41/10/41 42/9/42
f 50/1/50 40/11/40 41/10/41
f 50/1/50 39/12/39 40/11/40
f 50/1/50 38/13/38 39/12/39
f 50/1/50 37/14/37 38/13/38
f 50/1/50 36/15/36 37/14/37
f 50/1/50 35/16/35 36/15/36
f 50/1/50 34/17/34 35/16/35
f 50/1/50 33/3/33 34/17/34
f 49/18/49 2/19/2 1/20/1
f 49/18/49 3/21/3 2/19/2
f 49/18/49 4/22/4 3/21/3
f 49/18/49 5/23/5 4/22/4
f 49/18/49 6/24/6 5/23/5
f 49/18/49 7/25/7 6/24/6
f 49/18/49 8/26/8 7/25/7
f 49/18/49 9/27/9 8/26/8
f 49/18/49 10/28/10 9/27/9
f 49/18/49 11/29/11 10/28/10
f 49/18/49 12/30/12 11/29/11
f 49/18/49 13/31/13 12/30/12
f 49/18/49 14/32/14 13/31/13
f 49/18/49 15/33/15 14/32/14
f 49/18/49 16/34/16 15/33/15
f 49/18/49 1/20/1 16/34/16
f 32/35/32 17/36/17 33/37/33 48/38/48
f 31/39/31 32/40/32 48/41/48 47/42/47
f 30/43/30 31/39/31 47/42/47 46/44/46
f 29/45/29 30/46/30 46/47/46 45/48/45
f 28/49/28 29/45/29 45/48/45 44/50/44
f 27/51/27 28/52/28 44/53/44 43/54/43
f 26/55/26 27/51/27 43/54/43 42/56/42
f 25/57/25 26/58/26 42/59/42 41/60/41
f 24/61/24 25/57/25 41/60/41 40/62/40
f 23/63/23 24/64/24 40/65/40 39/66/39
f 22/67/22 23/63/23 39/66/39 38/68/38
f 21/69/21 22/70/22 38/71/38 37/72/37
f 20/73/20 21/69/21 37/72/37 36/74/36
f 19/75/19 20/76/20 36/77/36 35/78/35
f 18/79/18 19/75/19 35/78/35 34/80/34
f 17/36/17 18/81/18 34/82/34 33/37/33
f 16/83/16 1/84/1 17/36/17 32/35/32
f 15/85/15 16/86/16 32/40/32 31/39/31
f 14/87/14 15/85/15 31/39/31 30/43/30
f 13/88/13 14/89/14 30/46/30 29/45/29
f 12/90/12 13/88/13 29/45/29 28/49/28
f 11/91/11 12/92/12 28/52/28 27/51/27
f 10/93/10 11/91/11 27/51/27 26/55/26
f 9/94/9 10/95/10 26/58/26 25/57/25
f 8/96/8 9/94/9 25/57/25 24/61/24
f 7/97/7 8/98/8 24/64/24 23/63/23
f 6/99/6 7/97/7 23/63/23 22/67/22
f 5/100/5 6/101/6 22/70/22 21/69/21
f 4/102/4 5/100/5 21/69/21 20/73/20
f 3/103/3 4/104/4 20/76/20 19/75/19
f 2/105/2 3/103/3 19/75/19 18/79/18
f 1/84/1 2/106/2 18/81/18 17/36/17

g RetopoGroup2
#pivot 0.000000 0.000000 0.000000

v 16.861296 0.000000 -1.083539
v 16.861296 0.414653 -1.001060
v 16.861296 0.766178 -0.766178
v 16.861296 1.001060 -0.414653
v 16.861296 1.083539 0.000000
v 16.861296 1.001060 0.414653
v 16.861296 0.766178 0.766178
v 16.861296 0.414652 1.001060
v 16.861296 0.000000 1.083539
v 16.861296 -0.414653 1.001060
v 16.861296 -0.766178 0.766178
v 16.861296 -1.001060 0.414652
v 16.861294 -1.083539 0.000000
v 16.861296 -1.001060 -0.414653
v 16.861296 -0.766178 -0.766178
v 16.861296 -0.414653 -1.001060
v 18.629421 0.000000 -1.083539
v 18.629421 0.414652 -1.001060
v 18.629421 0.766178 -0.766178
v 18.629421 1.001060 -0.414653
v 18.629421 1.083539 0.000000
v 18.629421 1.001060 0.414653
v 18.629421 0.766178 0.766178
v 18.629421 0.414652 1.001060
v 18.629421 0.000000 1.083539
v 18.629421 -0.414653 1.001060
v 18.629421 -0.766178 0.766178
v 18.629421 -1.001060 0.414652
v 18.629421 -1.083539 0.000000
v 18.629421 -1.001060 -0.414653
v 18.629421 -0.766178 -0.766178
v 18.629421 -0.414653 -1.001060
v 20.397549 0.000000 -1.083539
v 20.397549 0.414652 -1.001060
v 20.397549 0.766178 -0.766178
v 20.397549 1.001060 -0.414653
v 20.397549 1.083539 0.000000
v 20.397549 1.001060 0.414653
v 20.397549 0.766178 0.766178
v 20.397549 0.414652 1.001060
v 20.397549 0.000000 1.083539
v 20.397549 -0.414653 1.001060
v 20.397549 -0.766178 0.766178
v 20.397549 -1.001060 0.414652
v 20.397549 -1.083540 0.000000
v 20.397549 -1.001060 -0.414653
v 20.397549 -0.766178 -0.766178
v 20.397549 -0.414653 -1.001060
v 16.861296 0.000000 0.000000
v 20.397549 0.000000 0.000000
# 50 positions

vt 0.838466 0.159546
vt 0.692895 0.130591
vt 0.715057 0.077087
vt 0.692895 0.188502
vt 0.715057 0.242006
vt 0.756007 0.282955
vt 0.809510 0.305117
vt 0.867422 0.305117
vt 0.920925 0.282955
vt 0.961875 0.242006
vt 0.984037 0.188502
vt 0.984037 0.130591
vt 0.961875 0.077087
vt 0.920925 0.036138
vt 0.867422 0.013976
vt 0.809510 0.013976
vt 0.756007 0.036138
vt 0.155571 0.155570
vt 0.032162 0.073112
vt 0.073112 0.032162
vt 0.010000 0.126615
vt 0.010000 0.184526
vt 0.032162 0.238030
vt 0.073112 0.278979
vt 0.126615 0.301141
vt 0.184527 0.301141
vt 0.238030 0.278979
vt 0.278980 0.238030
vt 0.301141 0.184526
vt 0.301141 0.126615
vt 0.278979 0.073111
vt 0.238030 0.032162
vt 0.184526 0.010000
vt 0.126615 0.010000
vt 0.252197 0.816265
vt 0.252197 0.874177
vt 0.010000 0.874176
vt 0.010000 0.816265
vt 0.252197 0.758354
vt 0.010000 0.758353
vt 0.252197 0.575737
vt 0.252197 0.517826
vt 0.494394 0.517827
vt 0.494394 0.575738
vt 0.252197 0.633649
vt 0.494394 0.633649
vt 0.252197 0.691561
vt 0.494394 0.691561
vt 0.252197 0.749473
vt 0.494394 0.749472
vt 0.495349 0.334282
vt 0.495349 0.276371
vt 0.737545 0.276369
vt 0.737546 0.334281
vt 0.495349 0.392194
vt 0.737546 0.392193
vt 0.495348 0.450105
vt 0.737545 0.450105
vt 0.495348 0.508017
vt 0.737545 0.508017
vt 0.745815 0.932088
vt 0.745815 0.990000
vt 0.503618 0.990000
vt 0.503618 0.932088
vt 0.745815 0.874177
vt 0.503618 0.874177
vt 0.745815 0.816265
vt 0.503618 0.816265
vt 0.745815 0.758354
vt 0.503618 0.758353
vt 0.252197 0.932088
vt 0.252197 0.990000
vt 0.010000 0.989999
vt 0.010001 0.932088
vt 0.494394 0.816265
vt 0.494394 0.874176
vt 0.494393 0.758353
vt 0.010000 0.575738
vt 0.010000 0.517826
vt 0.010000 0.633649
vt 0.010000 0.691561
vt 0.010000 0.749473
vt 0.253152 0.334281
vt 0.253152 0.276369
vt 0.253152 0.392192
vt 0.253152 0.450104
vt 0.253151 0.508015
vt 0.988011 0.932088
vt 0.988011 0.990000
vt 0.988011 0.874177
vt 0.988011 0.816265
vt 0.988012 0.758353
vt 0.494394 0.932088
vt 0.494394 0.990000
# 94 texture coordinates

vn -0.472565 0.000000 -0.881296
vn -0.472564 0.337257 -0.814212
vn -0.472565 0.623170 -0.623170
vn -0.472565 0.814211 -0.337257
vn -0.472565 0.881296 0.000000
vn -0.472565 0.814211 0.337257
vn -0.472565 0.623170 0.623171
vn -0.472565 0.337257 0.814211
vn -0.472565 0.000000 0.881296
vn -0.472565 -0.337257 0.814211
vn -0.472565 -0.623171 0.623170
vn -0.472564 -0.814211 0.337258
vn -0.472566 -0.881295 0.000000
vn -0.472564 -0.814211 -0.337258
vn -0.472565 -0.623170 -0.623170
vn -0.472565 -0.337257 -0.814211
vn 0.000000 -0.000000 -1.000000
vn 0.000000 0.382683 -0.923880
vn 0.000000 0.707106 -0.707107
vn 0.000000 0.923880 -0.382683
vn 0.000000 1.000000 0.000000
vn 0.000000 0.923880 0.382683
vn 0.000000 0.707106 0.707107
vn 0.000000 0.382683 0.923880
vn 0.000000 0.000000 1.000000
vn 0.000000 -0.382683 0.923880
vn 0.000000 -0.707107 0.707106
vn -0.000000 -0.923880 0.382683
vn -0.000000 -1.000000 0.000000
vn -0.000000 -0.923879 -0.382684
vn 0.000000 -0.707107 -0.707107
vn 0.000000 -0.382683 -0.923880
vn 0.472565 0.000000 -0.881296
vn 0.472564 0.337257 -0.814212
vn 0.472564 0.623170 -0.623171
vn 0.472564 0.814212 -0.337257
vn 0.472565 0.881296 0.000000
vn 0.472564 0.814212 0.337257
vn 0.472564 0.623170 0.623171
vn 0.472564 0.337257 0.814212
vn 0.472565 0.000000 0.881296
vn 0.472564 -0.337257 0.814212
vn 0.472564 -0.623171 0.623170
vn 0.472565 -0.814211 0.337258
vn 0.472564 -0.881296 0.000000
vn 0.472564 -0.814211 -0.337258
vn 0.472565 -0.623170 -0.623170
vn 0.472564 -0.337257 -0.814212
vn -1.000000 0.000000 -0.000000
vn 1.000000 0.000000 0.000000
# 50 normals

usemtl cap
f 100/107/100 98/108/98 83/109/83
f 100/107/100 97/110/97 98/108/98
f 100/107/100 96/111/96 97/110/97
f 100/107/100 95/112/95 96/111/96
f 100/107/100 94/113/94 95/112/95
f 100/107/100 93/114/93 94/113/94
f 100/107/100 92/115/92 93/114/93
f 100/107/100 91/116/91 92/115/92
f 100/107/100 90/117/90 91/116/91
f 100/107/100 89/118/89 90/117/90
f 100/107/100 88/119/88 89/118/89
f 100/107/100 87/120/87 88/119/88
f 100/107/100 86/121/86 87/120/87
f 100/107/100 85/122/85 86/121/86
f 100/107/100 84/123/84 85/122/85
f 100/107/100 83/109/83 84/123/84
f 99/124/99 52/125/52 51/126/51
f 99/124/99 53/127/53 52/125/52
f 99/124/99 54/128/54 53/127/53
f 99/124/99 55/129/55 54/128/54
f 99/124/99 56/130/56 55/129/55
f 99/124/99 57/131/57 56/130/56
f 99/124/99 58/132/58 57/131/57
f 99/124/99 59/133/59 58/132/58
f 99/124/99 60/134/60 59/133/59
f 99/124/99 61/135/61 60/134/60
f 99/124/99 62/136/62 61/135/61
f 99/124/99 63/137/63 62/136/62
f 99/124/99 64/138/64 63/137/63
f 99/124/99 65/139/65 64/138/64
f 99/124/99 66/140/66 65/139/65
f 99/124/99 51/126/51 66/140/66
f 82/141/82 67/142/67 83/143/83 98/144/98
f 81/145/81 82/141/82 98/144/98 97/146/97
f 80/147/80 81/148/81 97/149/97 96/150/96
f 79/151/79 80/147/80 96/150/96 95/152/95
f 78/153/78 79/151/79 95/152/95 94/154/94
f 77/155/77 78/153/78 94/154/94 93/156/93
f 76/157/76 77/158/77 93/159/93 92/160/92
f 75/161/75 76/157/76 92/160/92 91/162/91
f 74/163/74 75/161/75 91/162/91 90/164/90
f 73/165/73 74/163/74 90/164/90 89/166/89
f 72/167/72 73/168/73 89/169/89 88/170/88
f 71/171/71 72/167/72 88/170/88 87/172/87
f 70/173/70 71/171/71 87/172/87 86/174/86
f 69/175/69 70/173/70 86/174/86 85/176/85
f 68/177/68 69/178/69 85/179/85 84/180/84
f 67/142/67 68/177/68 84/180/84 83/143/83
f 66/181/66 51/182/51 67/142/67 82/141/82
f 65/183/65 66/181/66 82/141/82 81/145/81
f 64/184/64 65/185/65 81/148/81 80/147/80
f 63/186/63 64/184/64 80/147/80 79/151/79
f 62/187/62 63/186/63 79/151/79 78/153/78
f 61/188/61 62/187/62 78/153/78 77/155/77
f 60/189/60 61/190/61 77/158/77 76/157/76
f 59/191/59 60/189/60 76/157/76 75/161/75
f 58/192/58 59/191/59 75/161/75 74/163/74
f 57/193/57 58/192/58 74/163/74 73/165/73
f 56/194/56 57/195/57 73/168/73 72/167/72
f 55/196/55 56/194/56 72/167/72 71/171/71
f 54/197/54 55/196/55 71/171/71 70/173/70
f 53/198/53 54/197/54 70/173/70 69/175/69
f 52/199/52 53/200/53 69/178/69 68/177/68
f 51/182/51 52/199/52 68/177/68 67/142/67

# 128 faces
